<svg xmlns="http://www.w3.org/2000/svg" xmlns:xlink="http://www.w3.org/1999/xlink" viewBox="0 0 1577.49631 1038.43603"><defs><style>.cls-1{fill:#010101;}.cls-2{fill:#000046;}.cls-3{fill:#1cb5e0;}.cls-4{fill:url(#linear-gradient);}.cls-5{fill:url(#linear-gradient-17);}</style><linearGradient id="linear-gradient" x1="608.21582" y1="817.32227" x2="1298.16113" y2="817.32227" gradientUnits="userSpaceOnUse"><stop offset="0" stop-color="#0f0c29"/><stop offset="0.5" stop-color="#000046"/><stop offset="1" stop-color="#24243e"/></linearGradient><linearGradient id="linear-gradient-17" x1="587.18262" y1="641.87988" x2="1316.63574" y2="641.87988" gradientUnits="userSpaceOnUse"><stop offset="0" stop-color="#000046"/><stop offset="1" stop-color="#1cb5e0"/></linearGradient></defs><title>BLU_LOGO</title><g id="handshake"><path d="M926.49186,422.30773c4.36651-9.58646,9.10187-13.08113,19.46025-9.07883a119.66276,119.66276,0,0,0,37.10843,7.50517c15.1034.76321,26.73566-4.15322,35.22367-17.93036q-29.23415-14.17224-58.31729-28.29349c-4.93348-2.40553-11.72777-4.64156-8.47094-11.78126,3.60174-7.8958,9.86471-4.08685,15.40532-1.41362,19.6138,9.46349,39.15065,19.09919,58.94565,28.1701,14.69216,6.7326,27.66145,3.51852,33.38768-7.16783,4.25346-7.93795,3.97086-13.50553-5.13951-18.45937-22.24688-12.097-43.94878-25.19514-65.89829-37.84124-5.30426-3.056-12.385-6.03145-8.3118-13.46474,4.27168-7.79558,10.49156-2.583,15.56134.31984,23.29367,13.33737,46.69467,26.50435,69.65456,40.39779,7.80193,4.72108,15.38028,4.59857,23.3689,2.6642,8.3608-2.02452,12.01021-8.18,13.764-16.32779,1.80992-8.40841-2.98629-11.44226-9.16211-15.07106-26.20619-15.39819-52.07868-31.36319-78.1783-46.94483-5.54145-3.30824-11.68708-6.82645-6.86413-13.83,4.13924-6.01071,9.91475-2.01489,14.75922.896q39.07439,23.47873,78.16768,46.92592c3.91263,2.34873,7.66014,5.0388,11.75667,7.00213,10.88293,5.21587,21.04982,4.37771,28.3315-6.01517,7.04426-10.054,4.2809-19.82446-4.60337-26.97329-21.75034-17.5017-43.66683-34.83984-66.16916-51.35441A797.73239,797.73239,0,0,0,950.73414,161.998c-15.42867-7.60718-25.86585-5.15222-36.85463,7.96338-16.34691,19.51077-34.956,35.62522-62.14419,36.68231-16.782.65249-21.948-6.65381-16.789-22.76784,3.61874-11.30308,10.95666-20.50853,17.28419-30.25546,5.21632-8.0352,10.89243-15.77194,17.5341-25.32236-26.57117-3.73822-52.15242-6.87939-73.03914-23.42029-4.62405-3.66193-6.01766-.154-7.78868,2.98293Q754.957,168.04634,720.9033,228.18994c-2.586,4.54706-.92433,7.27041,2.06638,10.58169,6.1252,6.78176,11.52906,14.23672,17.86755,20.79859,7.73979,8.0125,9.94937,15.27187-1.24627,22.29475-8.9252-10.6725-18.28323-21.8626-27.38315-32.744-1.94275.72909-3.1979.79412-3.54243,1.38766-17.26606,29.7464-18.41955,30.04712-48.71039,11.9597-8.26193-4.93339-16.44348-10.00161-24.71412-14.92016-11.13985-6.62486-13.845-15.96533-7.64153-27.05211q51.928-92.80486,104.31622-185.35173c6.50435-11.49291,16.10369-12.74563,27.08276-6.14755q18.89347,11.35443,37.75747,22.758c11.42237,6.88746,15.50886,16.47915,7.82965,28.01209-5.1424,7.723-2.24395,10.16623,4.0162,14.944,20.26565,15.46671,44.93162,14.38246,67.87478,19.73872,1.30837.30544,3.48836-.08532,4.269-1.00009,20.91886-24.51176,50.7897-19.45524,77.64934-22.59825,34.61124-4.05013,68.88086.80136,102.49831,9.98366,10.85111,2.96388,22.323,5.56635,33.00628,1.60219,11.72169-4.34955,16.61065-.17372,22.06788,9.86422q33.00937,60.71736,67.79573,120.46052c4.82407,8.32172,4.32254,13.526-3.11877,19.01851-3.23033,2.38439-5.41186,6.2094-8.6768,8.52378-13.07084,9.26546-23.10968,16.71545-13.33835,37.0072,7.84912,16.3-9.48729,36.16965-28.98748,38.1296-8.01737.80582-11.6739,2.17089-13.75454,11.3345-3.24622,14.29729-13.54111,23.934-29.1637,24.59373-7.0731.29867-9.62354,3.18267-11.03776,9.45971-4.04851,17.96906-16.42153,26.16916-34.00547,26.76879-5.82153.19852-9.15578,2.30394-12.40712,6.79636-13.75226,19.00155-33.18891,24.26944-55.2539,20.87649C958.03972,432.81326,942.19459,429.24649,926.49186,422.30773Z" transform="translate(-171.02765 -25)"/><path d="M1157.77658,28.85173c7.75064-.93171,10.653,3.35786,13.1803,7.85161q52.79031,93.86559,105.51875,187.76592c4.75811,8.45536,4.37024,14.93055-4.94135,20.18949-13.20536,7.45806-26.14568,15.41461-38.92689,23.58434-8.68262,5.54992-14.889,4.2501-19.964-4.801q-52.64226-93.88638-105.475-187.66587c-4.69108-8.33512-4.61232-14.82843,4.91723-20.11533,13.25524-7.35387,25.97468-15.67035,38.97733-23.4852A73.70732,73.70732,0,0,1,1157.77658,28.85173Z" transform="translate(-171.02765 -25)"/><path d="M863.20079,295.663c-.23222,6.09118-2.95215,10.879-6.30573,15.40967-12.65576,17.09794-25.17008,34.30281-38.0039,51.266-9.68659,12.80323-19.6265,14.61594-31.06172,6.24769-11.82263-8.65174-13.95251-22.06631-5.00021-34.5116,12.71219-17.67212,25.74616-35.11263,38.62677-52.66375,5.822-7.933,12.62255-12.96732,23.22739-9.23381C856.04942,276.17873,861.46746,284.5304,863.20079,295.663Z" transform="translate(-171.02765 -25)"/><path d="M849.95032,405.84148c-12.42652.12949-19.2631-4.63-23.76819-12.66452-4.53231-8.083-4.84549-16.45483.79231-24.225,10.99245-15.15013,22.03482-30.2698,33.37176-45.16212,7.90735-10.3872,18.23713-10.66992,28.0418-3.70955,9.67853,6.8708,16.6122,17.21491,9.3687,28.63816-11.60019,18.294-25.2111,35.3241-38.20131,52.7172C856.62476,405.35952,851.78728,405.85909,849.95032,405.84148Z" transform="translate(-171.02765 -25)"/><path class="cls-1" d="M936.50549,388.48192c-8.18906,15.14114-17.2393,31.8265-32.69031,42.63583-7.94146,5.5557-17.9116.97576-24.49239-6.37216-6.86066-7.66037-10.17521-16.973-4.23951-26.38315A314.9253,314.9253,0,0,1,898.205,366.44987c6.40024-7.78242,15.49074-7.05391,23.6952-3.15292C931.39532,367.81154,935.40042,376.44022,936.50549,388.48192Z" transform="translate(-171.02765 -25)"/><path class="cls-1" d="M796.57247,292.02148c-.107,8.29568-17.37854,33.86756-25.21655,36.14712-9.51978,2.76868-18.02921.34337-24.64261-7.39316-6.92259-8.09823-8.66344-17.22486-3.52131-26.61822,3.36823-6.15288,8.41546-11.36126,12.20667-17.3137,6.17131-9.68934,14.89826-11.71324,25.02393-8.44364C789.605,271.36486,796.69654,282.39913,796.57247,292.02148Z" transform="translate(-171.02765 -25)"/></g><g id="medium_curves"><path class="cls-2" d="M448.54843,980.32451C386.9428,903.19863,337.20429,814.023,320.50062,715.77279c-15.14738-89.09622.45741-180.07952,38.05-261.76824,24.63146-53.52423,57.4093-103.0405,94.488-148.713,2.87485-3.54115,3.4627-8.491,0-11.95367-2.97121-2.97121-9.0618-3.56213-11.95367,0C376.77888,372.54819,323.76728,463.93837,305.18263,565.3491a439.97693,439.97693,0,0,0-3.64187,137.16311c6.28755,47.40507,20.11005,93.21481,39.54369,136.85613,24.55552,55.14329,57.91187,105.83925,95.51032,152.90984,2.85132,3.56965,8.97875,2.97491,11.95366,0,3.52673-3.52673,2.85856-8.375,0-11.95367Z" transform="translate(-171.02765 -25)"/><path class="cls-3" d="M1482.95684,992.27818c63.38179-79.3495,115.17594-170.83342,132.39533-272.01136a444.56724,444.56724,0,0,0,1.80115-137.85936c-6.75686-47.1917-21.36387-92.88531-41.19987-136.15983-25.29249-55.17845-59.30279-105.87582-97.48679-152.90971-2.8794-3.54676-8.9608-2.99287-11.95367,0-3.50629,3.50629-2.8866,8.398,0,11.95367,62.51291,77.00152,113.52028,166.04716,131.55481,264.55154,16.24718,88.7419,2.12052,179.76926-34.54293,261.76829-23.90466,53.46356-56.02734,103.02474-92.5217,148.71309-2.84647,3.56358-3.4806,8.47306,0,11.95367,2.95071,2.9507,9.08949,3.58575,11.95367,0Z" transform="translate(-171.02765 -25)"/></g><g id="text"><path class="cls-4" d="M637.64258,824.97754l11.43262.70215q-.6189,9.1626-5.81934,14.91992-5.2002,5.75684-13.74365,5.75781-10.4004,0-15.84864-7.71875-5.44775-7.7168-5.44775-21.25488,0-13.65967,5.40674-21.37891,5.406-7.71679,16.05469-7.71777,17.6228,0,19.1914,21.792l-11.30859.8252q-.45411-12.54639-7.84131-12.54688-3.88036,0-6.17041,4.04492-2.29029,4.04443-2.29053,15.6836,0,10.40039,2.105,14.30078a6.77659,6.77659,0,0,0,6.31446,3.89941Q636.44555,836.28613,637.64258,824.97754Z" transform="translate(-171.02765 -25)"/><path class="cls-4" d="M695.21729,817.30176q0,29.05518-20.4292,29.05566-10.15358,0-15.312-7.40918-5.15991-7.40771-5.15918-21.64648,0-29.01417,20.42969-29.01465,9.98732,0,15.22949,7.26367Q695.21656,802.81641,695.21729,817.30176Zm-13.04151,0q0-11.39209-1.7749-15.168a6.08395,6.08395,0,0,0-11.26709.02051q-1.77539,3.79833-1.7749,15.14746,0,11.14307,1.7539,15.06347,1.75416,3.92286,5.63379,3.9209a5.91113,5.91113,0,0,0,5.63379-3.75488Q682.17554,828.77538,682.17578,817.30176Z" transform="translate(-171.02765 -25)"/><path class="cls-4" d="M703.38916,789.1543h13.74365l14.48633,34.998v-34.998h9.5752v56.33593h-11.061l-17.16894-40.77636v40.77636h-9.5752Z" transform="translate(-171.02765 -25)"/><path class="cls-4" d="M750.89355,789.1543h13.74366l14.48633,34.998v-34.998h9.57519v56.33593h-11.061l-17.16895-40.77636v40.77636h-9.5752Z" transform="translate(-171.02765 -25)"/><path class="cls-4" d="M798.85156,789.1543h34.25586v9.65722H811.23291v13.083H828.2373v9.6582H811.23291v13.86719h21.87451v10.07031H798.85156Z" transform="translate(-171.02765 -25)"/><path class="cls-4" d="M866.57861,824.97754l11.43262.70215q-.6189,9.1626-5.81934,14.91992-5.20018,5.75684-13.74365,5.75781-10.40039,0-15.84863-7.71875-5.44776-7.7168-5.44775-21.25488,0-13.65967,5.40673-21.37891,5.406-7.71679,16.05469-7.71777,17.62281,0,19.19141,21.792l-11.3086.8252q-.45409-12.54639-7.8413-12.54688-3.88038,0-6.17041,4.04492-2.29029,4.04443-2.29053,15.6836,0,10.40039,2.105,14.30078a6.77657,6.77657,0,0,0,6.31445,3.89941Q865.3816,836.28613,866.57861,824.97754Z" transform="translate(-171.02765 -25)"/><path class="cls-4" d="M878.96045,789.1543H914.083v10.56543H902.56836v45.7705H890.18652v-45.7705H878.96045Z" transform="translate(-171.02765 -25)"/><path class="cls-4" d="M918.37549,789.1543h12.38135v56.33593H918.37549Z" transform="translate(-171.02765 -25)"/><path class="cls-4" d="M940.95117,789.1543h13.74365l14.48682,34.998v-34.998h9.57422v56.33593H967.69531l-17.16894-40.77636v40.77636h-9.5752Z" transform="translate(-171.02765 -25)"/><path class="cls-4" d="M1008.67871,815.44434h19.56348v30.04589H1023l-1.60937-6.43847q-4.541,7.30518-13.61915,7.30566a18.01142,18.01142,0,0,1-15.25-7.57422q-5.63378-7.57323-5.63476-20.36718,0-13.9087,5.55176-22.01856,5.55029-8.11085,16.40527-8.11035,17.29395,0,19.39844,19.31543l-11.14453,1.81543q-1.1543-11.05957-8.00586-11.06055-4.169,0-6.666,4.08594-2.49609,4.08545-2.49609,15.47754,0,10.11182,2.43457,14.23828a7.80774,7.80774,0,0,0,7.13965,4.12695q7.55272,0,7.59375-11.18457h-8.41895Z" transform="translate(-171.02765 -25)"/><path class="cls-4" d="M1053.666,789.1543h16.21875a41.20787,41.20787,0,0,1,11.45312,1.2373,12.42206,12.42206,0,0,1,6.83106,5.59278,19.75883,19.75883,0,0,1,2.76464,10.793,21.02977,21.02977,0,0,1-2.22851,10.23536,13.18868,13.18868,0,0,1-6.16992,5.83984q-3.94189,1.79589-12.11328,1.79492h-4.375v20.84277H1053.666Zm12.38086,9.12109v16.71484h3.83789q5.07714,0,6.542-2.35839a11.4597,11.4597,0,0,0,1.46582-6.12305,10.24876,10.24876,0,0,0-1.13477-5.15137,5.36373,5.36373,0,0,0-2.64258-2.52441,12.642,12.642,0,0,0-4.23046-.55762Z" transform="translate(-171.02765 -25)"/><path class="cls-4" d="M1096.877,789.1543h34.25586v9.65722h-21.874v13.083h17.00488v9.6582h-17.00488v13.86719h21.874v10.07031H1096.877Z" transform="translate(-171.02765 -25)"/><path class="cls-4" d="M1176.07813,817.30176q0,29.05518-20.42969,29.05566-10.15284,0-15.31153-7.40918-5.15918-7.40771-5.15918-21.64648,0-29.01417,20.42969-29.01465,9.98732,0,15.22949,7.26367Q1176.07812,802.81641,1176.07813,817.30176Zm-13.042,0q0-11.39209-1.77441-15.168a6.08431,6.08431,0,0,0-11.26758.02051q-1.77393,3.79833-1.77441,15.14746,0,11.14307,1.7539,15.06347,1.75342,3.92286,5.63379,3.9209a5.91157,5.91157,0,0,0,5.63379-3.75488Q1163.03565,828.77538,1163.03613,817.30176Z" transform="translate(-171.02765 -25)"/><path class="cls-4" d="M1184.7041,789.1543h16.21973a41.21739,41.21739,0,0,1,11.45312,1.2373,12.42348,12.42348,0,0,1,6.83008,5.59278,19.75062,19.75062,0,0,1,2.76563,10.793,21.04083,21.04083,0,0,1-2.22852,10.23536,13.19315,13.19315,0,0,1-6.16992,5.83984q-3.94189,1.79589-12.11426,1.79492h-4.374v20.84277H1184.7041Zm12.38184,9.12109v16.71484h3.83789q5.07714,0,6.542-2.35839a11.46868,11.46868,0,0,0,1.46484-6.12305,10.24876,10.24876,0,0,0-1.13476-5.15137,5.35837,5.35837,0,0,0-2.6416-2.52441,12.646,12.646,0,0,0-4.23047-.55762Z" transform="translate(-171.02765 -25)"/><path class="cls-4" d="M1227.916,789.1543h12.38183v45.7705H1258.457v10.56543h-30.541Z" transform="translate(-171.02765 -25)"/><path class="cls-4" d="M1263.90527,789.1543h34.25586v9.65722h-21.874v13.083H1293.291v9.6582h-17.00391v13.86719h21.874v10.07031h-34.25586Z" transform="translate(-171.02765 -25)"/></g><g id="BLU"><path class="cls-5" d="M587.18262,527.47363H702.37256q40.53661,0,61.1792,4.29248a65.25633,65.25633,0,0,1,34.60644,18.81983q13.96217,14.52978,13.96582,36.15429,0,37.80762-48.20166,48.53614,57.34425,13.53808,57.34766,55.30468,0,21.958-15.57275,37.0625-15.57276,15.10548-38.438,20.14063-22.86694,5.0376-64.88672,5.03516H587.18262Zm71.19043,90.96387h23.977q35.83887,0,45.11181-8.585,9.26954-8.581,9.26954-19.64551,0-10.23339-9.26954-18.24219-9.26952-8.00536-39.67334-8.00586H658.37305Zm0,95.751h36.33642q51.16846,0,51.168-29.46778,0-16.39013-12.73-23.09472-12.73389-6.70167-38.438-6.7041H658.37305Z" transform="translate(-171.02765 -25)"/><path class="cls-5" d="M871.69629,527.47363H945.853v183.083h108.7622v42.2627H871.69629Z" transform="translate(-171.02765 -25)"/><path class="cls-5" d="M1087.24414,527.47363h74.15723V656.24316q0,27.23877,3.708,37.96973,3.7075,10.7329,15.44921,16.26172,11.7378,5.53272,28.79688,5.53027,18.53906,0,29.416-6.1084,10.87354-6.10546,13.34766-16.17871,2.46827-10.06786,2.47168-37.47461V527.47363h62.04492V654.26172q0,37.97314-6.55078,56.625-6.55224,18.65772-33.37012,32.02734-26.82422,13.37256-73.78613,13.37207-44.001,0-69.21289-9.82226-25.21288-9.82032-35.8418-27.57032-10.63036-17.74365-10.62988-62.65039Z" transform="translate(-171.02765 -25)"/></g><g id="big_curves"><path class="cls-2" d="M349.03767,1049.02317c-39.29008-49.16962-74.32924-102.01611-101.89451-158.67236-24.49964-50.35531-42.68232-103.88319-52.12932-159.13865a504.63223,504.63223,0,0,1-2.01313-157.43851c8.00159-54.76321,24.65181-108.13118,47.76694-158.36379,26.02016-56.54566,59.65266-109.463,97.66457-158.67222q7.86221-10.1782,15.99367-20.14471c2.8755-3.54063,3.46229-8.49138,0-11.95367-2.97169-2.97169-9.06116-3.56158-11.95367,0-41.02362,50.51268-77.97066,104.54388-107.02146,162.86839-25.69754,51.59226-45.33257,106.40015-55.69567,163.17684a525.772,525.772,0,0,0-4.28929,163.40476c7.51716,56.74626,24.05537,111.63868,47.33007,163.87433,25.86969,58.05964,59.87134,112.26513,98.41793,162.70743q7.82443,10.23912,15.8702,20.30582c2.852,3.56912,8.97833,2.97534,11.95367,0,3.52624-3.52624,2.85921-8.3755,0-11.95366Z" transform="translate(-171.02765 -25)"/><path class="cls-3" d="M1570.51394,236.59293c39.29008,49.16961,74.32924,102.0161,101.89451,158.67235,24.49964,50.35531,42.68232,103.88319,52.12932,159.13865a504.6323,504.6323,0,0,1,2.01313,157.43852c-8.00159,54.7632-24.65181,108.13117-47.76694,158.36378-26.02016,56.54566-59.65266,109.463-97.66457,158.67222q-7.86221,10.17822-15.99367,20.14472c-2.8755,3.54062-3.46229,8.49137,0,11.95366,2.97169,2.97169,9.06116,3.56158,11.95367,0,41.02362-50.51268,77.97066-104.54388,107.02146-162.86838,25.69754-51.59227,45.33257-106.40016,55.69567-163.17685a525.772,525.772,0,0,0,4.28929-163.40476c-7.51716-56.74626-24.05538-111.63868-47.33007-163.87433-25.86969-58.05964-59.87135-112.26512-98.41793-162.70743q-7.82443-10.23912-15.8702-20.30582c-2.852-3.56912-8.97833-2.97534-11.95367,0-3.52624,3.52624-2.85921,8.3755,0,11.95367Z" transform="translate(-171.02765 -25)"/></g><g id="small_curves"><path class="cls-2" d="M553.8378,911.62585c-48.889-61.24019-88.35944-131.97-101.835-209.91341-12.26536-70.94367.02728-143.56956,29.90989-208.6781,19.66506-42.84646,45.85921-82.49193,75.51721-119.0441,2.87388-3.54192,3.46332-8.49034,0-11.95366-2.9705-2.97051-9.06274-3.56294-11.95367,0-51.73063,63.7557-94.4324,137.27088-109.25989,218.921-13.62563,75.032-1.83139,150.819,29.08569,220.15633,19.69905,44.17877,46.46556,84.74053,76.58206,122.46557,2.85034,3.57044,8.97938,2.97429,11.95367,0,3.52743-3.52743,2.85757-8.37417,0-11.95367Z" transform="translate(-171.02765 -25)"/><path class="cls-3" d="M1361.59253,924.592c50.89536-63.99236,92.51179-137.63141,106.333-219.10474,12.82455-75.59845.08793-151.66717-31.582-221.11654-20.29961-44.51523-47.66046-85.37425-78.35634-123.34653-2.872-3.55281-8.96553-2.98813-11.95367,0-3.51168,3.51169-2.87921,8.392,0,11.95367,49.69209,61.47149,90.14594,132.42266,104.65758,210.87539,13.12777,70.97123,1.96744,143.98835-27.27237,209.63829-19.06381,42.80254-44.6564,82.529-73.77982,119.14679-2.83893,3.56948-3.48534,8.46833,0,11.95367,2.94528,2.94528,9.09684,3.592,11.95367,0Z" transform="translate(-171.02765 -25)"/></g></svg>